HIERARCHY
ROOT root
{
	OFFSET	0	13.1	24.9
	CHANNELS 6  Xposition Yposition Zposition Xrotation Yrotation Zrotation
	JOINT spine_1
	{
		OFFSET	0	9.99999	0
		CHANNELS 3  Xrotation Yrotation Zrotation
		JOINT spine_2
		{
			OFFSET	0	112	-10
			CHANNELS 3  Xrotation Yrotation Zrotation
			JOINT spine_3
			{
				OFFSET	0	206.5	19.3
				CHANNELS 3  Xrotation Yrotation Zrotation
				JOINT spine_4
				{
					OFFSET	0	110.4	14.6
					CHANNELS 3  Xrotation Yrotation Zrotation
					JOINT neck_1
					{
						OFFSET	0	71.8	-50.3
						CHANNELS 3  Xrotation Yrotation Zrotation
						JOINT neck_2
						{
							OFFSET	0	86.2	-25.8
							CHANNELS 3  Xrotation Yrotation Zrotation
							JOINT head_ee
							{
								OFFSET	0	179.8	-8.7
								CHANNELS 3  Xrotation Yrotation Zrotation
								End Site
								{
									OFFSET	1	0	0
								}
							}
						}
					}
					JOINT left_clavicle
					{
						OFFSET	-43.2	22.4	-70.8
						CHANNELS 3  Xrotation Yrotation Zrotation
						JOINT left_shoulder
						{
							OFFSET	-93.9	-5.79999	48.7
							CHANNELS 3  Xrotation Yrotation Zrotation
							JOINT left_elbow
							{
								OFFSET	-291.4	-30.8	15.2
								CHANNELS 3  Xrotation Yrotation Zrotation
								JOINT left_lowarm_twist
								{
									OFFSET	-110.7	-3.89999	13.6
									CHANNELS 3  Xrotation Yrotation Zrotation
									JOINT left_hand
									{
										OFFSET	-110.7	-3.89999	13.6
										CHANNELS 3  Xrotation Yrotation Zrotation
										JOINT left_ee
										{
											OFFSET	-80.8	-5.10001	12.1
											CHANNELS 3  Xrotation Yrotation Zrotation
											End Site
											{
												OFFSET	1	0	0
											}
										}
									}
								}
							}
						}
					}
					JOINT right_clavicle
					{
						OFFSET	43.2	22.4	-70.8
						CHANNELS 3  Xrotation Yrotation Zrotation
						JOINT right_shoulder
						{
							OFFSET	93.9	-5.79999	48.7
							CHANNELS 3  Xrotation Yrotation Zrotation
							JOINT right_elbow
							{
								OFFSET	291.4	-30.8	15.2
								CHANNELS 3  Xrotation Yrotation Zrotation
								JOINT right_lowarm_twist
								{
									OFFSET	110.7	-3.89999	13.6
									CHANNELS 3  Xrotation Yrotation Zrotation
									JOINT right_hand
									{
										OFFSET	110.7	-3.89999	13.6
										CHANNELS 3  Xrotation Yrotation Zrotation
										JOINT right_ee
										{
											OFFSET	80.8	-5.10001	12.1
											CHANNELS 3  Xrotation Yrotation Zrotation
											End Site
											{
												OFFSET	1	0	0
											}
										}
									}
								}
							}
						}
					}
				}
			}
		}
	}
	JOINT left_hip
	{
		OFFSET	-82.8	-127.5	0.300001
		CHANNELS 3  Xrotation Yrotation Zrotation
		JOINT left_knee
		{
			OFFSET	-28.2	-396.7	2.2
			CHANNELS 3  Xrotation Yrotation Zrotation
			JOINT left_ankle
			{
				OFFSET	-11.7	-411.3	35.4
				CHANNELS 3  Xrotation Yrotation Zrotation
				JOINT left_toes
				{
					OFFSET	0	-60	-88.6
					CHANNELS 3  Xrotation Yrotation Zrotation
					JOINT left_foot_ee
					{
						OFFSET	-22.5	-16.5	-42.2
						CHANNELS 3  Xrotation Yrotation Zrotation
						End Site
						{
							OFFSET	1	0	0
						}
					}
				}
			}
		}
	}
	JOINT right_hip
	{
		OFFSET	82.8	-127.5	0.300001
		CHANNELS 3  Xrotation Yrotation Zrotation
		JOINT right_knee
		{
			OFFSET	28.2	-396.7	2.2
			CHANNELS 3  Xrotation Yrotation Zrotation
			JOINT right_ankle
			{
				OFFSET	11.7	-411.3	35.4
				CHANNELS 3  Xrotation Yrotation Zrotation
				JOINT right_toes
				{
					OFFSET	0	-60	-88.6
					CHANNELS 3  Xrotation Yrotation Zrotation
					JOINT right_foot_ee
					{
						OFFSET	22.5	-16.5	-42.2
						CHANNELS 3  Xrotation Yrotation Zrotation
						End Site
						{
							OFFSET	1	0	0
						}
					}
				}
			}
		}
	}
}
MOTION
Frames: 8
Frame Time: 0.02
3602.37747202 728.183 -1538.36930317 -18.9102833743 9.99074024558 1.13207930586 6.59682 0.124206 -0.617127 6.59701 0.163223 -0.607974 6.59505 0.221141 -0.589382 6.59459 0.125286 -0.616909 -14.0591 14.5397 3.3463 -14.5691 25.7367 7.93365 -0.0 0.0 -0.0 -2.26583 19.4091 -1.10015 -29.2663 -36.9126 70.7917 1.85604 -42.592 0.723544 24.779 0.198006 -3.13454 -0.212116 17.71 5.90184 -0.0 0.0 -0.0 8.99201 4.17857 -17.6787 53.2058 -65.4694 -22.0822 0.212674 6.0142 -0.0111723 37.2838 0.215573 4.6749 3.64511 -10.7959 -29.0859 0.0 0.0 0.0 55.7455 46.8909 -28.1905 -28.7832 0.0887446 4.37005 24.4855 -27.7144 -3.96088 -20.5102 0.0 0.0 -0.0 0.0 -0.0 35.9521 23.2474 0.831505 -42.4409 0.629312 -6.33656 39.5772 -15.3906 4.90047 12.7648 -0.0 -0.0 0.0 0.0 0.0 
3603.49209534 728.183 -1537.86790004 -18.8556371773 9.03749611703 0.801484893107 6.59682 0.124206 -0.617127 6.59701 0.163223 -0.607974 6.59505 0.221141 -0.589382 6.59459 0.125286 -0.616909 -14.0591 14.5397 3.3463 -14.5691 25.7367 7.93365 -0.0 0.0 -0.0 -2.26583 19.4091 -1.10015 -29.2663 -36.9126 70.7917 1.85604 -42.592 0.723544 24.779 0.198006 -3.13454 -0.212116 17.71 5.90184 -0.0 0.0 -0.0 8.99201 4.17857 -17.6787 53.2058 -65.4694 -22.0822 0.212674 6.0142 -0.0111723 37.2838 0.215573 4.6749 3.64511 -10.7959 -29.0859 0.0 0.0 0.0 55.7455 46.8909 -28.1905 -28.7832 0.0887446 4.37005 24.4855 -27.7144 -3.96088 -20.5102 0.0 0.0 -0.0 0.0 -0.0 35.9521 23.2474 0.831505 -42.4409 0.629312 -6.33656 39.5772 -15.3906 4.90047 12.7648 -0.0 -0.0 0.0 0.0 0.0 
3603.89504479 728.183 -1537.68079732 -18.8371880857 8.69092297403 0.681758657539 6.59682 0.124206 -0.617127 6.59701 0.163223 -0.607974 6.59505 0.221141 -0.589382 6.59459 0.125286 -0.616909 -14.0591 14.5397 3.3463 -14.5691 25.7367 7.93365 -0.0 0.0 -0.0 -2.26583 19.4091 -1.10015 -29.2663 -36.9126 70.7917 1.85604 -42.592 0.723544 24.779 0.198006 -3.13454 -0.212116 17.71 5.90184 -0.0 0.0 -0.0 8.99201 4.17857 -17.6787 53.2058 -65.4694 -22.0822 0.212674 6.0142 -0.0111723 37.2838 0.215573 4.6749 3.64511 -10.7959 -29.0859 0.0 0.0 0.0 55.7455 46.8909 -28.1905 -28.7832 0.0887446 4.37005 24.4855 -27.7144 -3.96088 -20.5102 0.0 0.0 -0.0 0.0 -0.0 35.9521 23.2474 0.831505 -42.4409 0.629312 -6.33656 39.5772 -15.3906 4.90047 12.7648 -0.0 -0.0 0.0 0.0 0.0 
3602.46974922 728.183 -1538.32868487 -18.9055583856 9.91211899614 1.1047377297 6.59682 0.124206 -0.617127 6.59701 0.163223 -0.607974 6.59505 0.221141 -0.589382 6.59459 0.125286 -0.616909 -14.0591 14.5397 3.3463 -14.5691 25.7367 7.93365 -0.0 0.0 -0.0 -2.26583 19.4091 -1.10015 -29.2663 -36.9126 70.7917 1.85604 -42.592 0.723544 24.779 0.198006 -3.13454 -0.212116 17.71 5.90184 -0.0 0.0 -0.0 8.99201 4.17857 -17.6787 53.2058 -65.4694 -22.0822 0.212674 6.0142 -0.0111723 37.2838 0.215573 4.6749 3.64511 -10.7959 -29.0859 0.0 0.0 0.0 55.7455 46.8909 -28.1905 -28.7832 0.0887446 4.37005 24.4855 -27.7144 -3.96088 -20.5102 0.0 0.0 -0.0 0.0 -0.0 35.9521 23.2474 0.831505 -42.4409 0.629312 -6.33656 39.5772 -15.3906 4.90047 12.7648 -0.0 -0.0 0.0 0.0 0.0 
3603.71668243 730.078 -1536.06931254 -20.3434576417 12.4223377029 1.91738888507 6.73267 0.492773 -0.400192 6.73261 0.517239 -0.368024 6.72941 0.549604 -0.317668 6.72961 0.492537 -0.400481 -15.2192 14.3632 3.17245 -15.8185 25.6398 8.0004 -0.0 0.0 -0.0 -1.96746 17.8884 -0.909717 -30.2404 -37.2759 70.0233 1.86389 -42.7126 0.728866 25.4565 0.184295 -3.22 -0.299063 17.2682 5.19525 -0.0 0.0 -0.0 10.0948 6.06132 -20.0408 56.0751 -65.0596 -20.7761 0.28078 7.91866 -0.0194338 37.5129 0.226263 4.70218 3.64695 -10.9538 -29.1491 0.0 0.0 0.0 58.4016 45.1133 -27.1118 -29.987 0.0445651 4.54951 21.3116 -27.5594 -3.50867 -22.7218 0.0 0.0 -0.0 0.0 -0.0 38.2787 22.0832 0.735342 -43.0881 0.674826 -6.42509 39.3759 -20.1116 4.97298 14.1399 -0.0 -0.0 0.0 0.0 0.0 
3601.43578663 728.754 -1544.40156672 -20.5412820837 15.0370933619 2.70598925941 6.79882 0.266368 -0.224185 6.7988 0.280094 -0.206781 6.79783 0.298108 -0.179841 6.79788 0.265964 -0.224665 -15.5213 14.6036 3.12029 -16.1753 26.1648 8.12402 -0.0 0.0 -0.0 -2.29665 19.0734 -1.20525 -31.4541 -37.1337 69.039 1.8827 -42.9994 0.741661 25.6604 0.179973 -3.24568 -0.171717 16.9898 5.8638 -0.0 0.0 -0.0 10.7694 7.56442 -21.5219 56.5342 -64.267 -21.9758 0.241502 6.8222 -0.0143948 37.4266 0.222225 4.69192 3.58807 -11.2413 -28.8029 0.0 0.0 0.0 60.7561 45.1157 -27.9359 -31.1504 -0.00171256 4.72204 22.3559 -27.9806 -3.67626 -23.7966 0.0 0.0 -0.0 0.0 -0.0 35.9602 22.844 1.75637 -41.7895 0.584524 -6.24696 40.4398 -15.7082 4.98317 14.8837 -0.0 -0.0 0.0 0.0 0.0 
3598.58473884 730.489 -1547.27887294 -21.5999720696 16.4179504294 3.64620201503 6.87034 0.835033 -0.280738 6.86998 0.851204 -0.227031 6.86714 0.86845 -0.147934 6.86808 0.834187 -0.283241 -16.8336 13.8059 2.78883 -17.5246 24.9522 7.83209 -0.0 0.0 -0.0 -2.07966 17.0903 -1.21691 -31.9604 -38.8771 69.3256 1.83168 -42.2153 0.707119 26.5874 0.15916 -3.36227 -0.393188 17.2167 4.59961 -0.0 0.0 -0.0 11.2726 9.25894 -22.6434 58.8421 -63.0251 -20.843 0.329696 9.27594 -0.0267466 37.5806 0.229442 4.71024 3.5476 -10.574 -28.2945 0.0 0.0 0.0 63.3459 43.0794 -27.1184 -32.0438 -0.0396259 4.85389 20.0642 -27.5102 -3.32537 -24.2441 0.0 0.0 -0.0 0.0 -0.0 38.0057 25.2417 -0.743539 -43.3188 0.691291 -6.45652 40.3772 -24.1068 5.17541 15.5659 -0.0 -0.0 0.0 0.0 0.0 
3593.42116864 730.47 -1555.42844416 -22.0303958413 16.2045448714 3.60015169786 7.04574 0.942508 -0.122354 7.04525 0.948384 -0.062126 7.04492 0.950156 0.0222276 7.04616 0.941741 -0.128124 -16.8021 13.7339 2.71837 -17.4857 24.8502 7.72983 -0.0 0.0 -0.0 -2.33709 17.7283 -1.50415 -33.0838 -39.0636 69.3833 1.67892 -39.7466 0.606913 27.5946 0.134413 -3.48855 -0.307149 17.1481 5.09765 -0.0 0.0 -0.0 11.7992 14.043 -23.7698 59.2649 -62.3604 -21.6399 0.311893 8.78311 -0.0239528 37.9052 0.244812 4.74878 3.38814 -10.1581 -26.9927 0.0 0.0 0.0 65.8619 41.8686 -26.6159 -33.3144 -0.0970883 5.04039 19.9871 -26.2799 -3.2666 -24.5928 0.0 0.0 -0.0 0.0 -0.0 37.7556 24.1362 0.0506329 -43.2285 0.684836 -6.44423 40.5611 -24.8206 5.21559 15.5204 -0.0 -0.0 0.0 0.0 0.0 
